<svg xmlns="http://www.w3.org/2000/svg" xmlns:xlink="http://www.w3.org/1999/xlink" width="1056" zoomAndPan="magnify" viewBox="0 0 792 394.499988" height="526" preserveAspectRatio="xMidYMid meet" version="1.0"><defs><filter x="0%" y="0%" width="100%" height="100%" id="f1fda9363c"><feColorMatrix values="0 0 0 0 1 0 0 0 0 1 0 0 0 0 1 0 0 0 1 0" color-interpolation-filters="sRGB"/></filter><clipPath id="4db1d76577"><path d="M 0.5 0 L 791.496094 0 L 791.496094 394 L 0.5 394 Z M 0.5 0 " clip-rule="nonzero"/></clipPath><mask id="c5f4fff1ab"><g filter="url(#f1fda9363c)"><rect x="-79.2" width="950.4" fill="#000000" y="-39.449999" height="473.399986" fill-opacity="0.33"/></g></mask><clipPath id="7d70d9323d"><path d="M 0.5 0 L 3 0 L 3 3 L 0.5 3 Z M 0.5 0 " clip-rule="nonzero"/></clipPath><clipPath id="2694b8a7b4"><path d="M 0.5 0 L 29 0 L 29 9 L 0.5 9 Z M 0.5 0 " clip-rule="nonzero"/></clipPath><clipPath id="0520456010"><path d="M 0.5 0 L 56 0 L 56 17 L 0.5 17 Z M 0.5 0 " clip-rule="nonzero"/></clipPath><clipPath id="a9973fe167"><path d="M 0.5 0 L 82 0 L 82 26 L 0.5 26 Z M 0.5 0 " clip-rule="nonzero"/></clipPath><clipPath id="1a8c521482"><path d="M 0.5 0 L 108 0 L 108 36 L 0.5 36 Z M 0.5 0 " clip-rule="nonzero"/></clipPath><clipPath id="bd98b9a0de"><path d="M 0.5 0 L 135 0 L 135 49 L 0.5 49 Z M 0.5 0 " clip-rule="nonzero"/></clipPath><clipPath id="47518d73c6"><path d="M 0.5 0 L 161 0 L 161 64 L 0.5 64 Z M 0.5 0 " clip-rule="nonzero"/></clipPath><clipPath id="3cb00be3a3"><path d="M 0.5 0 L 188 0 L 188 83 L 0.5 83 Z M 0.5 0 " clip-rule="nonzero"/></clipPath><clipPath id="dcebf15b0f"><path d="M 0.5 0 L 214 0 L 214 107 L 0.5 107 Z M 0.5 0 " clip-rule="nonzero"/></clipPath><clipPath id="815e9779ca"><path d="M 0.5 0 L 240 0 L 240 140 L 0.5 140 Z M 0.5 0 " clip-rule="nonzero"/></clipPath><clipPath id="3b877a3cdd"><path d="M 0.5 0 L 267 0 L 267 186 L 0.5 186 Z M 0.5 0 " clip-rule="nonzero"/></clipPath><clipPath id="3a2406d18b"><path d="M 0.5 0 L 293 0 L 293 254 L 0.5 254 Z M 0.5 0 " clip-rule="nonzero"/></clipPath><clipPath id="92f49b9978"><path d="M 0.5 0 L 320 0 L 320 368 L 0.5 368 Z M 0.5 0 " clip-rule="nonzero"/></clipPath><clipPath id="c1d100cb06"><path d="M 115 0 L 346 0 L 346 393.25 L 115 393.25 Z M 115 0 " clip-rule="nonzero"/></clipPath><clipPath id="d3a6efd85d"><path d="M 255 0 L 373 0 L 373 393.25 L 255 393.25 Z M 255 0 " clip-rule="nonzero"/></clipPath><clipPath id="5f16a6cfc0"><path d="M 396 1 L 399 1 L 399 393.25 L 396 393.25 Z M 396 1 " clip-rule="nonzero"/></clipPath><clipPath id="7431946a91"><path d="M 0.5 12 L 398 12 L 398 15 L 0.5 15 Z M 0.5 12 " clip-rule="nonzero"/></clipPath><clipPath id="ce71547451"><path d="M 0.5 8 L 398 8 L 398 11 L 0.5 11 Z M 0.5 8 " clip-rule="nonzero"/></clipPath><clipPath id="2eef6deb68"><path d="M 0.5 3 L 398 3 L 398 6 L 0.5 6 Z M 0.5 3 " clip-rule="nonzero"/></clipPath><clipPath id="f558bcdb2b"><path d="M 0.5 0 L 398 0 L 398 3 L 0.5 3 Z M 0.5 0 " clip-rule="nonzero"/></clipPath><clipPath id="4a704ab8cf"><path d="M 0.5 17 L 398 17 L 398 20 L 0.5 20 Z M 0.5 17 " clip-rule="nonzero"/></clipPath><clipPath id="283ca57e0e"><path d="M 0.5 23 L 398 23 L 398 26 L 0.5 26 Z M 0.5 23 " clip-rule="nonzero"/></clipPath><clipPath id="b20b0a1c86"><path d="M 0.5 29 L 398 29 L 398 32 L 0.5 32 Z M 0.5 29 " clip-rule="nonzero"/></clipPath><clipPath id="cc31c84dd0"><path d="M 0.5 36 L 398 36 L 398 39 L 0.5 39 Z M 0.5 36 " clip-rule="nonzero"/></clipPath><clipPath id="644ae6a757"><path d="M 0.5 43 L 398 43 L 398 46 L 0.5 46 Z M 0.5 43 " clip-rule="nonzero"/></clipPath><clipPath id="c838ffec40"><path d="M 0.5 52 L 398 52 L 398 55 L 0.5 55 Z M 0.5 52 " clip-rule="nonzero"/></clipPath><clipPath id="4817c43995"><path d="M 0.5 62 L 398 62 L 398 65 L 0.5 65 Z M 0.5 62 " clip-rule="nonzero"/></clipPath><clipPath id="ade914055e"><path d="M 0.5 73 L 398 73 L 398 76 L 0.5 76 Z M 0.5 73 " clip-rule="nonzero"/></clipPath><clipPath id="9922f725c0"><path d="M 0.5 86 L 398 86 L 398 89 L 0.5 89 Z M 0.5 86 " clip-rule="nonzero"/></clipPath><clipPath id="16678732bf"><path d="M 0.5 101 L 398 101 L 398 104 L 0.5 104 Z M 0.5 101 " clip-rule="nonzero"/></clipPath><clipPath id="705f8133b5"><path d="M 0.5 119 L 398 119 L 398 122 L 0.5 122 Z M 0.5 119 " clip-rule="nonzero"/></clipPath><clipPath id="a45af09341"><path d="M 0.5 141 L 398 141 L 398 144 L 0.5 144 Z M 0.5 141 " clip-rule="nonzero"/></clipPath><clipPath id="c45f423b2b"><path d="M 0.5 168 L 398 168 L 398 171 L 0.5 171 Z M 0.5 168 " clip-rule="nonzero"/></clipPath><clipPath id="b141ca943f"><path d="M 0.5 202 L 398 202 L 398 205 L 0.5 205 Z M 0.5 202 " clip-rule="nonzero"/></clipPath><clipPath id="8b0d7926d7"><path d="M 0.5 246 L 398 246 L 398 249 L 0.5 249 Z M 0.5 246 " clip-rule="nonzero"/></clipPath><clipPath id="536d766bae"><path d="M 0.5 306 L 398 306 L 398 309 L 0.5 309 Z M 0.5 306 " clip-rule="nonzero"/></clipPath><clipPath id="35deab896b"><path d="M 423 0 L 539 0 L 539 393.25 L 423 393.25 Z M 423 0 " clip-rule="nonzero"/></clipPath><clipPath id="f37547ca94"><path d="M 449 0 L 679 0 L 679 393.25 L 449 393.25 Z M 449 0 " clip-rule="nonzero"/></clipPath><clipPath id="5f3ce85840"><path d="M 476 0 L 791.496094 0 L 791.496094 365 L 476 365 Z M 476 0 " clip-rule="nonzero"/></clipPath><clipPath id="c0d962b475"><path d="M 502 0 L 791.496094 0 L 791.496094 252 L 502 252 Z M 502 0 " clip-rule="nonzero"/></clipPath><clipPath id="d8e39f1544"><path d="M 529 0 L 791.496094 0 L 791.496094 183 L 529 183 Z M 529 0 " clip-rule="nonzero"/></clipPath><clipPath id="23c8b75563"><path d="M 555 0 L 791.496094 0 L 791.496094 138 L 555 138 Z M 555 0 " clip-rule="nonzero"/></clipPath><clipPath id="c0fdd21eae"><path d="M 582 0 L 791.496094 0 L 791.496094 106 L 582 106 Z M 582 0 " clip-rule="nonzero"/></clipPath><clipPath id="4dbf290e32"><path d="M 608 0 L 791.496094 0 L 791.496094 81 L 608 81 Z M 608 0 " clip-rule="nonzero"/></clipPath><clipPath id="c72f708eea"><path d="M 634 0 L 791.496094 0 L 791.496094 63 L 634 63 Z M 634 0 " clip-rule="nonzero"/></clipPath><clipPath id="c8f76d1364"><path d="M 661 0 L 791.496094 0 L 791.496094 47 L 661 47 Z M 661 0 " clip-rule="nonzero"/></clipPath><clipPath id="05b79d94c2"><path d="M 687 0 L 791.496094 0 L 791.496094 35 L 687 35 Z M 687 0 " clip-rule="nonzero"/></clipPath><clipPath id="8f2e0da82e"><path d="M 714 0 L 791.496094 0 L 791.496094 25 L 714 25 Z M 714 0 " clip-rule="nonzero"/></clipPath><clipPath id="b88af76f17"><path d="M 740 0 L 791.496094 0 L 791.496094 16 L 740 16 Z M 740 0 " clip-rule="nonzero"/></clipPath><clipPath id="6467ac2594"><path d="M 766 0 L 791.496094 0 L 791.496094 9 L 766 9 Z M 766 0 " clip-rule="nonzero"/></clipPath><clipPath id="1b264946a9"><path d="M 397 12 L 791.496094 12 L 791.496094 15 L 397 15 Z M 397 12 " clip-rule="nonzero"/></clipPath><clipPath id="dc650d952d"><path d="M 397 8 L 791.496094 8 L 791.496094 11 L 397 11 Z M 397 8 " clip-rule="nonzero"/></clipPath><clipPath id="387439bac7"><path d="M 397 3 L 791.496094 3 L 791.496094 6 L 397 6 Z M 397 3 " clip-rule="nonzero"/></clipPath><clipPath id="cffbeffff8"><path d="M 397 0 L 791.496094 0 L 791.496094 3 L 397 3 Z M 397 0 " clip-rule="nonzero"/></clipPath><clipPath id="ff9ea974be"><path d="M 397 17 L 791.496094 17 L 791.496094 20 L 397 20 Z M 397 17 " clip-rule="nonzero"/></clipPath><clipPath id="ccfcf69462"><path d="M 397 23 L 791.496094 23 L 791.496094 26 L 397 26 Z M 397 23 " clip-rule="nonzero"/></clipPath><clipPath id="ef3a98acc1"><path d="M 397 29 L 791.496094 29 L 791.496094 32 L 397 32 Z M 397 29 " clip-rule="nonzero"/></clipPath><clipPath id="40d75027f1"><path d="M 397 36 L 791.496094 36 L 791.496094 39 L 397 39 Z M 397 36 " clip-rule="nonzero"/></clipPath><clipPath id="b8cb0d9d59"><path d="M 397 43 L 791.496094 43 L 791.496094 46 L 397 46 Z M 397 43 " clip-rule="nonzero"/></clipPath><clipPath id="53de5d85d9"><path d="M 397 52 L 791.496094 52 L 791.496094 55 L 397 55 Z M 397 52 " clip-rule="nonzero"/></clipPath><clipPath id="c730d0a192"><path d="M 397 62 L 791.496094 62 L 791.496094 65 L 397 65 Z M 397 62 " clip-rule="nonzero"/></clipPath><clipPath id="337606064c"><path d="M 397 73 L 791.496094 73 L 791.496094 76 L 397 76 Z M 397 73 " clip-rule="nonzero"/></clipPath><clipPath id="c2d7bc1947"><path d="M 397 86 L 791.496094 86 L 791.496094 89 L 397 89 Z M 397 86 " clip-rule="nonzero"/></clipPath><clipPath id="41ce49eb4e"><path d="M 397 101 L 791.496094 101 L 791.496094 104 L 397 104 Z M 397 101 " clip-rule="nonzero"/></clipPath><clipPath id="c767e9b7a2"><path d="M 397 119 L 791.496094 119 L 791.496094 122 L 397 122 Z M 397 119 " clip-rule="nonzero"/></clipPath><clipPath id="659e43c144"><path d="M 397 141 L 791.496094 141 L 791.496094 144 L 397 144 Z M 397 141 " clip-rule="nonzero"/></clipPath><clipPath id="3a41a45eef"><path d="M 397 168 L 791.496094 168 L 791.496094 171 L 397 171 Z M 397 168 " clip-rule="nonzero"/></clipPath><clipPath id="92c0ba5ff2"><path d="M 397 202 L 791.496094 202 L 791.496094 205 L 397 205 Z M 397 202 " clip-rule="nonzero"/></clipPath><clipPath id="1259adaa24"><path d="M 397 246 L 791.496094 246 L 791.496094 249 L 397 249 Z M 397 246 " clip-rule="nonzero"/></clipPath><clipPath id="7bff82247b"><path d="M 397 306 L 791.496094 306 L 791.496094 309 L 397 309 Z M 397 306 " clip-rule="nonzero"/></clipPath><clipPath id="290a8b6587"><rect x="0" width="792" y="0" height="394"/></clipPath></defs><g clip-path="url(#4db1d76577)"><g mask="url(#c5f4fff1ab)"><g transform="matrix(1, 0, 0, 1, 0, 0)"><g clip-path="url(#290a8b6587)"><g clip-path="url(#7d70d9323d)"><path fill="#dff1ff" d="M 1.738281 0.0234375 L 0.546875 0.296875 L 0.546875 2.476562 L 2.207031 2.078125 Z M 1.738281 0.0234375 " fill-opacity="1" fill-rule="nonzero"/></g><g clip-path="url(#2694b8a7b4)"><path fill="#dff1ff" d="M 28.097656 0.0234375 L 0.546875 6.808594 L 0.546875 8.984375 L 28.617188 2.078125 Z M 28.097656 0.0234375 " fill-opacity="1" fill-rule="nonzero"/></g><g clip-path="url(#0520456010)"><path fill="#dff1ff" d="M 54.484375 0.0234375 L 0.546875 14.332031 L 0.546875 16.507812 L 55.003906 2.078125 Z M 54.484375 0.0234375 " fill-opacity="1" fill-rule="nonzero"/></g><g clip-path="url(#a9973fe167)"><path fill="#dff1ff" d="M 80.84375 0.0507812 L 0.546875 23.09375 L 0.546875 25.296875 L 81.414062 2.078125 Z M 80.84375 0.0507812 " fill-opacity="1" fill-rule="nonzero"/></g><g clip-path="url(#1a8c521482)"><path fill="#dff1ff" d="M 107.207031 0.0507812 L 0.546875 33.441406 L 0.546875 35.667969 L 107.824219 2.054688 Z M 107.207031 0.0507812 " fill-opacity="1" fill-rule="nonzero"/></g><g clip-path="url(#bd98b9a0de)"><path fill="#dff1ff" d="M 133.566406 0.0507812 L 0.546875 45.867188 L 0.546875 48.117188 L 134.234375 2.054688 Z M 133.566406 0.0507812 " fill-opacity="1" fill-rule="nonzero"/></g><g clip-path="url(#47518d73c6)"><path fill="#dff1ff" d="M 159.902344 0.0742188 L 0.546875 61.0625 L 0.546875 63.316406 L 160.671875 2.03125 Z M 159.902344 0.0742188 " fill-opacity="1" fill-rule="nonzero"/></g><g clip-path="url(#3cb00be3a3)"><path fill="#dff1ff" d="M 186.265625 0.0742188 L 0.546875 80.046875 L 0.546875 82.351562 L 187.082031 2.03125 Z M 186.265625 0.0742188 " fill-opacity="1" fill-rule="nonzero"/></g><g clip-path="url(#dcebf15b0f)"><path fill="#dff1ff" d="M 212.601562 0.0976562 L 0.546875 104.429688 L 0.546875 106.78125 L 213.515625 2.003906 Z M 212.601562 0.0976562 " fill-opacity="1" fill-rule="nonzero"/></g><g clip-path="url(#815e9779ca)"><path fill="#dff1ff" d="M 238.914062 0.148438 L 0.546875 136.953125 L 0.546875 139.378906 L 239.976562 1.980469 Z M 238.914062 0.148438 " fill-opacity="1" fill-rule="nonzero"/></g><g clip-path="url(#3b877a3cdd)"><path fill="#dff1ff" d="M 265.222656 0.171875 L 0.546875 182.449219 L 0.546875 185.023438 L 266.4375 1.929688 Z M 265.222656 0.171875 " fill-opacity="1" fill-rule="nonzero"/></g><g clip-path="url(#3a2406d18b)"><path fill="#dff1ff" d="M 291.535156 0.246094 L 0.546875 250.664062 L 0.546875 253.4375 L 292.898438 1.855469 Z M 291.535156 0.246094 " fill-opacity="1" fill-rule="nonzero"/></g><g clip-path="url(#92f49b9978)"><path fill="#dff1ff" d="M 317.796875 0.371094 L 0.546875 364.230469 L 0.546875 367.445312 L 319.40625 1.757812 Z M 317.796875 0.371094 " fill-opacity="1" fill-rule="nonzero"/></g><g clip-path="url(#c1d100cb06)"><path fill="#dff1ff" d="M 344.085938 0.519531 L 115.472656 393.484375 L 117.898438 393.484375 L 345.890625 1.585938 Z M 344.085938 0.519531 " fill-opacity="1" fill-rule="nonzero"/></g><g clip-path="url(#d3a6efd85d)"><path fill="#dff1ff" d="M 370.371094 0.765625 L 255.816406 393.484375 L 258.019531 393.484375 L 372.375 1.335938 Z M 370.371094 0.765625 " fill-opacity="1" fill-rule="nonzero"/></g><g clip-path="url(#5f16a6cfc0)"><path fill="#dff1ff" d="M 396.707031 1.0625 L 396.113281 393.484375 L 398.21875 393.484375 L 398.8125 1.0625 Z M 396.707031 1.0625 " fill-opacity="1" fill-rule="nonzero"/></g><g clip-path="url(#7431946a91)"><path fill="#dff1ff" d="M 0.546875 12.597656 L 397.746094 12.597656 L 397.746094 14.703125 L 0.546875 14.703125 Z M 0.546875 12.597656 " fill-opacity="1" fill-rule="nonzero"/></g><g clip-path="url(#ce71547451)"><path fill="#dff1ff" d="M 0.546875 8.019531 L 397.746094 8.019531 L 397.746094 10.125 L 0.546875 10.125 Z M 0.546875 8.019531 " fill-opacity="1" fill-rule="nonzero"/></g><g clip-path="url(#2eef6deb68)"><path fill="#dff1ff" d="M 0.546875 3.835938 L 397.746094 3.835938 L 397.746094 5.941406 L 0.546875 5.941406 Z M 0.546875 3.835938 " fill-opacity="1" fill-rule="nonzero"/></g><g clip-path="url(#f558bcdb2b)"><path fill="#dff1ff" d="M 0.546875 0 L 397.773438 0 L 397.773438 2.105469 L 0.546875 2.105469 Z M 0.546875 0 " fill-opacity="1" fill-rule="nonzero"/></g><g clip-path="url(#4a704ab8cf)"><path fill="#dff1ff" d="M 0.546875 17.625 L 397.722656 17.625 L 397.722656 19.726562 L 0.546875 19.726562 Z M 0.546875 17.625 " fill-opacity="1" fill-rule="nonzero"/></g><g clip-path="url(#283ca57e0e)"><path fill="#dff1ff" d="M 0.546875 23.144531 L 397.722656 23.144531 L 397.722656 25.246094 L 0.546875 25.246094 Z M 0.546875 23.144531 " fill-opacity="1" fill-rule="nonzero"/></g><g clip-path="url(#b20b0a1c86)"><path fill="#dff1ff" d="M 0.546875 29.257812 L 397.722656 29.257812 L 397.722656 31.359375 L 0.546875 31.359375 Z M 0.546875 29.257812 " fill-opacity="1" fill-rule="nonzero"/></g><g clip-path="url(#cc31c84dd0)"><path fill="#dff1ff" d="M 0.546875 36.089844 L 397.699219 36.089844 L 397.699219 38.191406 L 0.546875 38.191406 Z M 0.546875 36.089844 " fill-opacity="1" fill-rule="nonzero"/></g><g clip-path="url(#644ae6a757)"><path fill="#dff1ff" d="M 0.546875 43.710938 L 397.699219 43.710938 L 397.699219 45.816406 L 0.546875 45.816406 Z M 0.546875 43.710938 " fill-opacity="1" fill-rule="nonzero"/></g><g clip-path="url(#c838ffec40)"><path fill="#dff1ff" d="M 0.546875 52.324219 L 397.671875 52.324219 L 397.671875 54.429688 L 0.546875 54.429688 Z M 0.546875 52.324219 " fill-opacity="1" fill-rule="nonzero"/></g><g clip-path="url(#4817c43995)"><path fill="#dff1ff" d="M 0.546875 62.101562 L 397.671875 62.101562 L 397.671875 64.207031 L 0.546875 64.207031 Z M 0.546875 62.101562 " fill-opacity="1" fill-rule="nonzero"/></g><g clip-path="url(#ade914055e)"><path fill="#dff1ff" d="M 0.546875 73.316406 L 397.648438 73.316406 L 397.648438 75.421875 L 0.546875 75.421875 Z M 0.546875 73.316406 " fill-opacity="1" fill-rule="nonzero"/></g><g clip-path="url(#9922f725c0)"><path fill="#dff1ff" d="M 0.546875 86.3125 L 397.625 86.3125 L 397.625 88.414062 L 0.546875 88.414062 Z M 0.546875 86.3125 " fill-opacity="1" fill-rule="nonzero"/></g><g clip-path="url(#16678732bf)"><path fill="#dff1ff" d="M 0.546875 101.535156 L 397.597656 101.535156 L 397.597656 103.636719 L 0.546875 103.636719 Z M 0.546875 101.535156 " fill-opacity="1" fill-rule="nonzero"/></g><g clip-path="url(#705f8133b5)"><path fill="#dff1ff" d="M 0.546875 119.628906 L 397.574219 119.628906 L 397.574219 121.730469 L 0.546875 121.730469 Z M 0.546875 119.628906 " fill-opacity="1" fill-rule="nonzero"/></g><g clip-path="url(#a45af09341)"><path fill="#dff1ff" d="M 0.546875 141.457031 L 397.550781 141.457031 L 397.550781 143.5625 L 0.546875 143.5625 Z M 0.546875 141.457031 " fill-opacity="1" fill-rule="nonzero"/></g><g clip-path="url(#c45f423b2b)"><path fill="#dff1ff" d="M 0.546875 168.339844 L 397.5 168.339844 L 397.5 170.445312 L 0.546875 170.445312 Z M 0.546875 168.339844 " fill-opacity="1" fill-rule="nonzero"/></g><g clip-path="url(#b141ca943f)"><path fill="#dff1ff" d="M 0.546875 202.273438 L 397.449219 202.273438 L 397.449219 204.378906 L 0.546875 204.378906 Z M 0.546875 202.273438 " fill-opacity="1" fill-rule="nonzero"/></g><g clip-path="url(#8b0d7926d7)"><path fill="#dff1ff" d="M 0.546875 246.40625 L 397.402344 246.40625 L 397.402344 248.511719 L 0.546875 248.511719 Z M 0.546875 246.40625 " fill-opacity="1" fill-rule="nonzero"/></g><g clip-path="url(#536d766bae)"><path fill="#dff1ff" d="M 0.546875 306.183594 L 397.300781 306.183594 L 397.300781 308.289062 L 0.546875 308.289062 Z M 0.546875 306.183594 " fill-opacity="1" fill-rule="nonzero"/></g><g clip-path="url(#35deab896b)"><path fill="#dff1ff" d="M 423.144531 1.335938 L 536.308594 393.484375 L 538.511719 393.484375 L 425.148438 0.765625 Z M 423.144531 1.335938 " fill-opacity="1" fill-rule="nonzero"/></g><g clip-path="url(#f37547ca94)"><path fill="#dff1ff" d="M 449.628906 1.585938 L 676.433594 393.484375 L 678.859375 393.484375 L 451.433594 0.519531 Z M 449.628906 1.585938 " fill-opacity="1" fill-rule="nonzero"/></g><g clip-path="url(#5f3ce85840)"><path fill="#dff1ff" d="M 476.113281 1.757812 L 791.382812 364.574219 L 791.382812 361.355469 L 477.722656 0.371094 Z M 476.113281 1.757812 " fill-opacity="1" fill-rule="nonzero"/></g><g clip-path="url(#c0d962b475)"><path fill="#dff1ff" d="M 502.621094 1.855469 L 791.382812 251.011719 L 791.382812 248.214844 L 503.984375 0.246094 Z M 502.621094 1.855469 " fill-opacity="1" fill-rule="nonzero"/></g><g clip-path="url(#d8e39f1544)"><path fill="#dff1ff" d="M 529.082031 1.929688 L 791.382812 182.917969 L 791.382812 180.371094 L 530.296875 0.171875 Z M 529.082031 1.929688 " fill-opacity="1" fill-rule="nonzero"/></g><g clip-path="url(#23c8b75563)"><path fill="#dff1ff" d="M 555.542969 1.980469 L 791.382812 137.574219 L 791.382812 135.121094 L 556.605469 0.148438 Z M 555.542969 1.980469 " fill-opacity="1" fill-rule="nonzero"/></g><g clip-path="url(#c0fdd21eae)"><path fill="#dff1ff" d="M 582.003906 2.003906 L 791.382812 105.171875 L 791.382812 102.820312 L 582.917969 0.0976562 Z M 582.003906 2.003906 " fill-opacity="1" fill-rule="nonzero"/></g><g clip-path="url(#4dbf290e32)"><path fill="#dff1ff" d="M 608.4375 2.03125 L 791.382812 80.890625 L 791.382812 78.589844 L 609.253906 0.0742188 Z M 608.4375 2.03125 " fill-opacity="1" fill-rule="nonzero"/></g><g clip-path="url(#c72f708eea)"><path fill="#dff1ff" d="M 634.847656 2.03125 L 791.382812 62.027344 L 791.382812 59.75 L 635.617188 0.0742188 Z M 634.847656 2.03125 " fill-opacity="1" fill-rule="nonzero"/></g><g clip-path="url(#c8f76d1364)"><path fill="#dff1ff" d="M 661.285156 2.054688 L 791.382812 46.929688 L 791.382812 44.675781 L 661.953125 0.0507812 Z M 661.285156 2.054688 " fill-opacity="1" fill-rule="nonzero"/></g><g clip-path="url(#05b79d94c2)"><path fill="#dff1ff" d="M 687.695312 2.054688 L 791.382812 34.554688 L 791.382812 32.351562 L 688.3125 0.0507812 Z M 687.695312 2.054688 " fill-opacity="1" fill-rule="nonzero"/></g><g clip-path="url(#8f2e0da82e)"><path fill="#dff1ff" d="M 714.105469 2.078125 L 791.382812 24.28125 L 791.382812 22.078125 L 714.675781 0.0507812 Z M 714.105469 2.078125 " fill-opacity="1" fill-rule="nonzero"/></g><g clip-path="url(#b88af76f17)"><path fill="#dff1ff" d="M 740.515625 2.078125 L 791.382812 15.570312 L 791.382812 13.390625 L 741.058594 0.0234375 Z M 740.515625 2.078125 " fill-opacity="1" fill-rule="nonzero"/></g><g clip-path="url(#6467ac2594)"><path fill="#dff1ff" d="M 766.902344 2.078125 L 791.382812 8.09375 L 791.382812 5.941406 L 767.421875 0.0234375 Z M 766.902344 2.078125 " fill-opacity="1" fill-rule="nonzero"/></g><g clip-path="url(#1b264946a9)"><path fill="#dff1ff" d="M 397.746094 12.597656 L 791.382812 12.597656 L 791.382812 14.703125 L 397.746094 14.703125 Z M 397.746094 12.597656 " fill-opacity="1" fill-rule="nonzero"/></g><g clip-path="url(#dc650d952d)"><path fill="#dff1ff" d="M 397.746094 8.019531 L 791.382812 8.019531 L 791.382812 10.125 L 397.746094 10.125 Z M 397.746094 8.019531 " fill-opacity="1" fill-rule="nonzero"/></g><g clip-path="url(#387439bac7)"><path fill="#dff1ff" d="M 397.746094 3.835938 L 791.382812 3.835938 L 791.382812 5.941406 L 397.746094 5.941406 Z M 397.746094 3.835938 " fill-opacity="1" fill-rule="nonzero"/></g><g clip-path="url(#cffbeffff8)"><path fill="#dff1ff" d="M 397.773438 0 L 791.382812 0 L 791.382812 2.105469 L 397.773438 2.105469 Z M 397.773438 0 " fill-opacity="1" fill-rule="nonzero"/></g><g clip-path="url(#ff9ea974be)"><path fill="#dff1ff" d="M 397.722656 17.625 L 791.382812 17.625 L 791.382812 19.726562 L 397.722656 19.726562 Z M 397.722656 17.625 " fill-opacity="1" fill-rule="nonzero"/></g><g clip-path="url(#ccfcf69462)"><path fill="#dff1ff" d="M 397.722656 23.144531 L 791.382812 23.144531 L 791.382812 25.246094 L 397.722656 25.246094 Z M 397.722656 23.144531 " fill-opacity="1" fill-rule="nonzero"/></g><g clip-path="url(#ef3a98acc1)"><path fill="#dff1ff" d="M 397.722656 29.257812 L 791.382812 29.257812 L 791.382812 31.359375 L 397.722656 31.359375 Z M 397.722656 29.257812 " fill-opacity="1" fill-rule="nonzero"/></g><g clip-path="url(#40d75027f1)"><path fill="#dff1ff" d="M 397.699219 36.089844 L 791.382812 36.089844 L 791.382812 38.191406 L 397.699219 38.191406 Z M 397.699219 36.089844 " fill-opacity="1" fill-rule="nonzero"/></g><g clip-path="url(#b8cb0d9d59)"><path fill="#dff1ff" d="M 397.699219 43.710938 L 791.382812 43.710938 L 791.382812 45.816406 L 397.699219 45.816406 Z M 397.699219 43.710938 " fill-opacity="1" fill-rule="nonzero"/></g><g clip-path="url(#53de5d85d9)"><path fill="#dff1ff" d="M 397.671875 52.324219 L 791.382812 52.324219 L 791.382812 54.429688 L 397.671875 54.429688 Z M 397.671875 52.324219 " fill-opacity="1" fill-rule="nonzero"/></g><g clip-path="url(#c730d0a192)"><path fill="#dff1ff" d="M 397.671875 62.101562 L 791.382812 62.101562 L 791.382812 64.207031 L 397.671875 64.207031 Z M 397.671875 62.101562 " fill-opacity="1" fill-rule="nonzero"/></g><g clip-path="url(#337606064c)"><path fill="#dff1ff" d="M 397.648438 73.316406 L 791.382812 73.316406 L 791.382812 75.421875 L 397.648438 75.421875 Z M 397.648438 73.316406 " fill-opacity="1" fill-rule="nonzero"/></g><g clip-path="url(#c2d7bc1947)"><path fill="#dff1ff" d="M 397.625 86.3125 L 791.382812 86.3125 L 791.382812 88.414062 L 397.625 88.414062 Z M 397.625 86.3125 " fill-opacity="1" fill-rule="nonzero"/></g><g clip-path="url(#41ce49eb4e)"><path fill="#dff1ff" d="M 397.597656 101.535156 L 791.382812 101.535156 L 791.382812 103.636719 L 397.597656 103.636719 Z M 397.597656 101.535156 " fill-opacity="1" fill-rule="nonzero"/></g><g clip-path="url(#c767e9b7a2)"><path fill="#dff1ff" d="M 397.574219 119.628906 L 791.382812 119.628906 L 791.382812 121.730469 L 397.574219 121.730469 Z M 397.574219 119.628906 " fill-opacity="1" fill-rule="nonzero"/></g><g clip-path="url(#659e43c144)"><path fill="#dff1ff" d="M 397.550781 141.457031 L 791.382812 141.457031 L 791.382812 143.5625 L 397.550781 143.5625 Z M 397.550781 141.457031 " fill-opacity="1" fill-rule="nonzero"/></g><g clip-path="url(#3a41a45eef)"><path fill="#dff1ff" d="M 397.5 168.339844 L 791.382812 168.339844 L 791.382812 170.445312 L 397.5 170.445312 Z M 397.5 168.339844 " fill-opacity="1" fill-rule="nonzero"/></g><g clip-path="url(#92c0ba5ff2)"><path fill="#dff1ff" d="M 397.449219 202.273438 L 791.382812 202.273438 L 791.382812 204.378906 L 397.449219 204.378906 Z M 397.449219 202.273438 " fill-opacity="1" fill-rule="nonzero"/></g><g clip-path="url(#1259adaa24)"><path fill="#dff1ff" d="M 397.402344 246.40625 L 791.382812 246.40625 L 791.382812 248.511719 L 397.402344 248.511719 Z M 397.402344 246.40625 " fill-opacity="1" fill-rule="nonzero"/></g><g clip-path="url(#7bff82247b)"><path fill="#dff1ff" d="M 397.300781 306.183594 L 791.382812 306.183594 L 791.382812 308.289062 L 397.300781 308.289062 Z M 397.300781 306.183594 " fill-opacity="1" fill-rule="nonzero"/></g></g></g></g></g></svg>